<?xml version="1.0" encoding="UTF-8" standalone="no"?>
<!-- Created with Inkscape (http://www.inkscape.org/) -->

<svg
   xmlns:dc="http://purl.org/dc/elements/1.1/"
   xmlns:cc="http://creativecommons.org/ns#"
   xmlns:rdf="http://www.w3.org/1999/02/22-rdf-syntax-ns#"
   xmlns:svg="http://www.w3.org/2000/svg"
   xmlns="http://www.w3.org/2000/svg"
   xmlns:sodipodi="http://sodipodi.sourceforge.net/DTD/sodipodi-0.dtd"
   xmlns:inkscape="http://www.inkscape.org/namespaces/inkscape"
   version="1.1"
   id="svg112"
   width="747"
   height="801"
   viewBox="0 0 747 801"
   sodipodi:docname="logo.svg"
   inkscape:version="0.92.5 (2060ec1f9f, 2020-04-08)">
  <metadata
     id="metadata118">
    <rdf:RDF>
      <cc:Work
         rdf:about="">
        <dc:format>image/svg+xml</dc:format>
        <dc:type
           rdf:resource="http://purl.org/dc/dcmitype/StillImage" />
      </cc:Work>
    </rdf:RDF>
  </metadata>
  <defs
     id="defs116" />
  <sodipodi:namedview
     pagecolor="#ffffff"
     bordercolor="#666666"
     borderopacity="1"
     objecttolerance="10"
     gridtolerance="10"
     guidetolerance="10"
     inkscape:pageopacity="0"
     inkscape:pageshadow="2"
     inkscape:window-width="1848"
     inkscape:window-height="1016"
     id="namedview114"
     showgrid="false"
     inkscape:zoom="1.0461923"
     inkscape:cx="373.5"
     inkscape:cy="400.5"
     inkscape:window-x="72"
     inkscape:window-y="27"
     inkscape:window-maximized="1"
     inkscape:current-layer="svg112" />
  <path
     style="fill:#000000"
     d="M 483.56429,736.7935 C 475.39799,735.05178 470,728.23498 470,719.66397 c 0,-6.09217 1.38627,-9.39972 5.93644,-14.16397 l 3.82026,-4 0.57347,-16 c 0.48361,-13.49294 0.8355,-16.15669 2.24577,-17 0.91977,-0.55 3.19145,-1.99894 5.04818,-3.21986 L 491,663.06027 v 19.44419 19.44418 l 2.88254,1.49062 c 3.72916,1.92842 8.77607,9.58062 9.62231,14.58947 0.51435,3.04442 0.10462,5.14455 -1.82678,9.36328 -3.64918,7.97087 -9.81552,11.17134 -18.11378,9.40149 z m 6.36419,-11.25651 c 4.5922,-2.37472 5.36995,-6.61658 1.99894,-10.90213 -2.71439,-3.45079 -8.09273,-3.66464 -10.37072,-0.41235 -3.48586,4.97676 -0.82443,11.43068 5.24296,12.7141 0.16481,0.0349 1.57278,-0.59497 3.12882,-1.39962 z m -227.47806,10.11183 c -4.10787,-1.86393 -8.1661,-6.87922 -9.46266,-11.69429 -1.94675,-7.22967 2.39049,-17.03029 9.06393,-20.48126 L 265,701.94864 v -18.99117 -18.99116 l 4.9135,2.48986 4.91351,2.48986 0.33649,16.55748 0.3365,16.55748 3.37522,2.63998 c 4.10956,3.21436 7.07328,9.40529 7.10282,14.83714 0.0266,4.89424 -3.47512,12.1143 -7.18657,14.81764 -3.42872,2.4974 -12.16354,3.18859 -16.34105,1.29307 z m 12.09147,-11.69511 c 2.32701,-2.57131 2.27431,-8.39434 -0.0997,-11.0176 -0.9637,-1.06486 -2.99976,-1.93611 -4.5246,-1.93611 -5.55,0 -9.11276,8.91688 -5.2626,13.17126 2.25139,2.48775 7.54403,2.3713 9.8869,-0.21755 z m 94.32872,-1.18726 C 353.06526,713.12056 342.92985,706.62927 319.11706,690.90146 279.71141,664.8749 269.65467,658.36919 266,656.54002 262.50074,654.78864 243.74663,642.80855 226.80135,631.5 c -4.94488,-3.3 -11.08559,-7.29854 -13.64602,-8.88565 -2.56043,-1.58711 -9.38033,-5.90087 -15.15533,-9.58614 -10.2965,-6.57062 -16.93216,-10.73735 -38,-23.86133 -16.67596,-10.38812 -60.371071,-36.80719 -73.5,-44.4398 -6.6,-3.83696 -12.45,-7.33193 -13,-7.7666 -0.660812,-0.52223 -0.899674,-49.40779 -0.704216,-144.12539 L 73.091568,249.5 84.795784,242.40831 C 91.233103,238.50789 105.95,229.32803 117.5,222.00863 c 11.55,-7.3194 30.45,-19.24865 42,-26.50945 19.00044,-11.94445 36.5171,-23.13985 60.5,-38.66727 4.675,-3.02676 14.8,-9.47655 22.5,-14.33285 7.7,-4.8563 15.8,-10.06074 18,-11.56542 13.84677,-9.47042 90.6731,-60.031109 102.89905,-67.719578 l 14.76619,-9.285937 6.66738,4.347911 c 3.66706,2.391351 10.49238,6.703365 15.16738,9.582253 15.23679,9.382886 58.54221,37.541581 64.04103,41.641711 5.00519,3.73206 22.93037,15.4852 49.87777,32.70375 6.28034,4.01294 17.61599,11.34625 25.19033,16.29625 7.57434,4.95 20.08229,13.05 27.79543,18 7.71315,4.95 21.1275,13.62576 29.80967,19.27947 8.68218,5.6537 31.647,20.0537 51.03295,32 l 35.24718,21.72053 0.003,143.09501 c 0.003,135.04377 -0.0956,143.17958 -1.74718,144.59795 -0.9625,0.82661 -6.25,4.19473 -11.75,7.48471 -9.14863,5.47252 -48.12954,29.14326 -70,42.50676 -4.95,3.0246 -16.65,10.44332 -26,16.48605 -9.35,6.04273 -20.375,12.92891 -24.5,15.30262 -4.125,2.37372 -14.7,9.06991 -23.5,14.88043 -8.8,5.81053 -20.725,13.35512 -26.5,16.76577 -13.83148,8.1687 -46.41785,29.1075 -105.94712,68.07769 -7.39591,4.84166 -13.92091,8.92291 -14.5,9.06946 -0.57908,0.14654 -4.9361,-2.10346 -9.68227,-5 z M 413.5,685.21182 c 18.15,-11.57132 42,-26.78941 53,-33.81799 11,-7.02858 29,-18.47068 40,-25.42689 11,-6.95621 30.35,-19.31123 43,-27.4556 44.63224,-28.7353 50.3654,-32.33618 94.69911,-59.4786 l 21.6991,-13.28484 0.0537,-132.78237 0.0537,-132.78236 -11.2528,-6.92687 c -16.98598,-10.45604 -38.34521,-23.93939 -56.97062,-35.9636 -9.19479,-5.93598 -24.71979,-15.94918 -34.5,-22.25155 C 553.50198,188.73879 539.2,179.49121 531.5,174.49099 c -7.7,-5.00023 -18.17461,-11.76875 -23.27691,-15.04116 -5.10231,-3.2724 -21.30231,-13.89547 -36,-23.6068 C 439.27063,114.07008 379.36149,76 378.05086,76 c -0.53135,0 -4.54789,2.3625 -8.92564,5.25 -4.37775,2.8875 -10.58433,6.88702 -13.79239,8.887822 C 338.7635,100.47178 304.18636,122.71567 286.5,134.4188 c -11,7.27874 -23.375,15.36725 -27.5,17.97446 -13.68152,8.64744 -40.37575,25.76285 -49,31.41709 -25.04851,16.42233 -102.2637,65.42917 -113.589889,72.09307 l -6.089889,3.58307 -0.09466,133.71014 c -0.08961,126.58021 -0.0012,133.7398 1.657672,134.26631 6.09557,1.93466 69.642666,40.90549 122.116766,74.88922 10.175,6.58962 29.75,19.16166 43.5,27.93787 13.75,8.77621 27.925,17.87331 31.5,20.21577 6.323,4.14305 32.31876,20.88694 50.5,32.5271 28.98603,18.55771 38.12725,24.03276 39.48313,23.64806 0.83428,-0.23671 16.36687,-9.89782 34.51687,-21.46914 z m -40.11188,9.80811 c -3.00307,-1.21338 -6.22858,-5.65258 -6.96696,-9.5885 -0.73677,-3.92731 2.5911,-11.83244 5.67625,-13.48356 C 373.93484,670.9645 374,668.8895 374,611.35783 c 0,-51.49033 0.19572,-59.4967 1.4427,-59.01819 0.79349,0.30449 2.70599,0.19115 4.25,-0.25187 l 2.8073,-0.80548 -0.28795,59.59452 c -0.26124,54.0684 -0.13723,59.70473 1.33735,60.78297 3.59247,2.62688 6.4506,7.75959 6.4506,11.58416 0,9.363 -8.19899,15.17518 -16.61188,11.77599 z m 8.1599,-9.45287 C 383.61163,682.41758 382.02541,679 378.5,679 c -5.69798,0 -5.02191,8.29672 0.72695,8.92105 0.39982,0.0434 1.4443,-1.01587 2.32107,-2.35399 z m -41.78545,-11.13245 c -3.23743,-1.75661 -5.76911,-6.22197 -5.74612,-10.13495 0.0217,-3.69587 3.94537,-10.54459 6.75268,-11.78679 C 342.97926,651.53492 343,651.3216 343,629.56662 V 607.6075 l 2.636,-3.80375 C 347.0858,601.71169 348.59964,600 349.00008,600 350.27016,600 351,608.80934 351,624.13957 351,632.31281 351.19038,639 351.42308,639 c 0.23269,0 1.80769,-1.38462 3.5,-3.07692 L 358,632.84615 v -44.78414 -44.78415 l 4,1.06766 4,1.06766 v 44.62389 44.62389 l -4.25,3.15922 c -11.98369,8.90803 -12.94081,11.17282 -7.75,18.33852 3.55248,4.90406 3.92285,9.92137 1.05366,14.27387 -3.56604,5.4096 -9.72577,7.02175 -15.29109,4.00204 z m 9.27106,-9.02307 c 1.41166,-3.71294 0.19915,-5.56671 -3.41128,-5.21538 -2.71771,0.26446 -3.16304,0.72613 -3.43635,3.56239 -0.25439,2.63997 0.12528,3.42447 2,4.13259 2.81341,1.06267 3.66683,0.62614 4.84763,-2.4796 z m 55.81057,8.33349 c -5.51098,-4.65861 -6.30839,-10.64172 -2.34278,-17.57839 l 2.47733,-4.33337 -5.60313,-5.16663 c -3.08172,-2.84165 -6.45194,-5.57291 -7.48937,-6.06945 C 390.07696,639.73121 390,637.75119 390,592.06642 v -47.62794 l 3.25,-1.39193 c 1.7875,-0.76555 3.5875,-1.57671 4,-1.80257 0.4125,-0.22585 0.75,21.28622 0.75,47.80461 v 48.21526 l 3.75,3.53691 3.75,3.53691 0.25845,-54.48765 0.25846,-54.48766 3.52547,-1.68118 C 411.48139,532.75653 413.31715,532 413.62185,532 c 0.3047,0 0.32719,25.3125 0.05,56.25 -0.27721,30.9375 -0.27049,57.91227 0.0149,59.94393 0.39185,2.78918 1.03644,3.76889 2.63174,4 5.38474,0.78007 8.44228,11.50041 5.11508,17.93451 -2.90701,5.62153 -11.8987,7.58178 -16.58938,3.61659 z m 10.11012,-7.18999 c 1.58283,-1.90719 0.97345,-5.58269 -1.14578,-6.91087 -1.99319,-1.24919 -5.80854,1.58238 -5.80854,4.31082 0,3.64945 4.64278,5.38528 6.95432,2.60005 z M 304.4,652.6 c -3.313,-3.313 -3.60448,-4.03882 -3.10811,-7.7395 0.32388,-2.41471 1.5712,-5.16195 3.05201,-6.72208 2.26282,-2.38402 2.41939,-3.07231 1.62375,-7.13842 -0.4843,-2.475 -0.90015,-13.07741 -0.9241,-23.56091 L 305,588.37818 l 8.25,-7.11755 c 4.5375,-3.91465 9.30843,-7.95608 10.60206,-8.98095 2.31606,-1.83487 2.36035,-2.21502 2.89334,-24.83429 l 0.54126,-22.9709 3.85667,0.36779 3.85667,0.36779 -0.0284,25.64497 -0.0284,25.64496 -5.31143,3.21268 c -2.92128,1.76697 -7.85851,5.30958 -10.97163,7.87247 L 313,592.24496 l 0.011,17.62752 c 0.0134,21.39165 0.49268,24.94426 3.5537,26.33896 1.92688,0.87794 2.8913,0.52059 6.30847,-2.33753 l 4.03386,-3.37391 -0.57254,-14 -0.57253,-14 8.00287,-7 8.00287,-7 0.75617,-8.5 c 0.4159,-4.675 0.44818,-16.9375 0.0717,-27.25 -0.37643,-10.3125 -0.55195,-18.74322 -0.39002,-18.73494 0.16192,0.008 2.0944,0.64127 4.2944,1.40665 l 4,1.3916 0.21046,28.79618 0.21046,28.79618 -7.96046,7.43341 -7.96046,7.43341 v 11.99628 11.99627 l -6.43909,5.90026 c -4.87535,4.46737 -6.51459,6.65754 -6.75,9.0186 -0.38938,3.90536 -4.05657,6.77111 -9.61956,7.51726 -3.7626,0.50467 -4.46516,0.22503 -7.79135,-3.10116 z m 11.5967,-5.09132 c 1.51201,-3.97688 0.2851,-5.65906 -3.87394,-5.31146 -4.49765,0.3759 -5.54399,3.6939 -1.95715,6.20622 3.18748,2.2326 4.73219,1.99557 5.83109,-0.89476 z m 124.78562,7.47048 c -0.94473,-0.5733 -4.20642,-4.34912 -7.2482,-8.3907 -3.04178,-4.04158 -7.03674,-8.49718 -8.87767,-9.90133 l -3.34716,-2.55301 0.46533,-22.81706 c 0.25593,-12.54938 0.78932,-23.41993 1.18531,-24.15676 0.55641,-1.03536 1.38106,-0.77132 3.63002,1.16227 l 2.91005,2.50197 0.34211,20.33773 0.3421,20.33773 3.1579,2.70936 c 3.4941,2.99781 5.85409,3.46408 7.49936,1.48166 0.66608,-0.80258 1.23733,-8.74675 1.47661,-20.53468 l 0.39025,-19.22569 -5.60417,-4.49431 c -3.08229,-2.47188 -7.67481,-5.46047 -10.20561,-6.64133 l -4.60145,-2.14701 -0.7086,-28.43062 c -0.38973,-15.63684 -0.49223,-28.64699 -0.22777,-28.91144 0.26445,-0.26445 2.02951,-0.83011 3.92235,-1.25702 l 3.44152,-0.77618 0.6317,8.11363 c 0.34744,4.4625 0.63441,16.26882 0.63771,26.23627 l 0.006,18.12264 4.25,3.91423 c 2.3375,2.15282 6.98232,5.59961 10.32182,7.65952 l 6.07182,3.74529 0.20754,21.17816 c 0.20154,20.56758 0.28244,21.33129 2.80584,26.48894 2.41326,4.93252 2.50015,5.56869 1.21997,8.93226 -2.25338,5.92054 -9.87485,9.87627 -14.09467,7.31548 z m 7.28012,-9.09582 c 0.88506,-1.65376 0.82128,-2.42819 -0.29163,-3.5411 -2.61718,-2.61718 -9.12157,1.66316 -7.21504,4.748 1.1228,1.81672 6.33714,0.97837 7.50667,-1.2069 z m 14.72802,-6.07297 c -0.11525,-0.17071 -0.45275,-12.64378 -0.75,-27.71795 L 461.5,584.68485 l -8.0668,-5.09243 c -4.43674,-2.80083 -9.94924,-6.63023 -12.25,-8.50978 L 437,567.66527 v -24.19556 -24.19555 l 4.53308,1.49235 4.53308,1.49235 -0.10765,20.35439 -0.10765,20.3544 2.82457,2.57265 c 4.09476,3.72955 12.6866,9.25731 17.78665,11.44344 l 4.4165,1.89314 -0.18929,30.31156 L 470.5,639.5 l -3.75,0.31037 c -2.0625,0.1707 -3.84429,0.1707 -3.95954,0 z M 284.38,637.54789 c -0.30647,-0.79867 -0.31903,-1.83753 -0.0279,-2.30859 0.29114,-0.47106 0.61701,-13.75432 0.72418,-29.51836 l 0.19484,-28.66188 12.36444,-8.22859 L 310,560.60189 V 541.32 522.0381 l 2.75,-0.57928 c 7.17733,-1.51189 6.50514,-3.84 6.10503,21.14467 -0.29864,18.64792 -0.61475,22.61811 -1.85746,23.32829 -0.82366,0.4707 -6.44757,4.36985 -12.49757,8.66476 l -11,7.80893 -0.002,8.04726 c -10e-4,4.426 -0.11379,17.15977 -0.25,28.29727 L 293,639 h -4.03138 c -2.60188,0 -4.22898,-0.51491 -4.58862,-1.45211 z m -25.4998,-14.98333 c -4.62209,-3.14079 -6.47855,-7.40938 -5.02983,-11.56517 1.02968,-2.95375 0.97154,-3.05224 -1.64144,-2.7808 L 249.5,608.5 249,561 c -0.32496,-30.87126 -0.14992,-47.99779 0.5,-48.92193 C 250.97677,509.9782 267.96809,499 269.74136,499 c 0.83737,0 3.08434,-1.65605 4.99327,-3.6801 4.10484,-4.3524 6.60986,-3.71647 7.01716,1.78138 0.23708,3.2001 -0.172,3.67892 -7,8.19338 -12.59311,8.32616 -18.25445,12.76983 -18.16846,14.26068 0.0458,0.79456 0.15834,20.3211 0.25,43.39231 L 257,604.8953 l 3.75,-1.29515 3.75,-1.29516 0.76499,-9.4025 c 0.42075,-5.17137 0.49852,-14.1906 0.17283,-20.04274 l -0.59217,-10.64024 3.47842,-2.65312 c 3.36334,-2.56534 3.46592,-2.8419 3.10086,-8.35975 -0.20766,-3.13865 -0.57896,-9.2 -0.82511,-13.46965 l -0.44756,-7.76302 7.67387,-5.81822 c 4.22063,-3.20002 9.92387,-7.09187 12.67387,-8.64856 2.75,-1.55668 6.49735,-4.22013 8.32744,-5.91876 l 3.32744,-3.08843 2.41759,3 c 1.32968,1.65 2.41983,3.33468 2.42256,3.74373 0.003,0.40905 -1.90753,2.10029 -4.24503,3.75831 -2.3375,1.65803 -8.75,6.25036 -14.25,10.20519 l -10,7.1906 0.34717,8.55108 c 0.25637,6.31468 0.89134,9.52892 2.42785,12.2899 1.14438,2.05635 1.88815,3.88205 1.65283,4.05711 -0.23532,0.17506 -2.27293,1.73951 -4.52802,3.47655 l -4.10017,3.15826 -0.55071,18.63159 c -0.50648,17.1351 -0.39064,18.99347 1.44225,23.13702 2.64491,5.97926 1.82693,10.19955 -2.75698,14.22427 -4.33801,3.80883 -8.59577,4.01017 -13.55402,0.64095 z m 9.51256,-6.81456 c 1.50614,-2.40266 -0.33117,-5.15859 -3.70874,-5.56306 -2.09787,-0.25122 -2.74198,0.1958 -3.26081,2.26299 -1.22671,4.88759 4.32618,7.51687 6.96955,3.30007 z m 215.50051,7.80725 c -5.62831,-3.17608 -7.54148,-10.46929 -4.36014,-16.62132 1.17586,-2.27386 1.61057,-7.33084 1.86544,-21.70034 l 0.3323,-18.73559 -4.11022,-3.62861 c -4.02162,-3.55039 -4.08339,-3.7028 -2.86544,-7.07099 C 475.43985,553.90708 476,548.0909 476,542.87556 v -9.48245 l -3.27015,-1.94655 c -1.79859,-1.07061 -8.09859,-5.30254 -14,-9.40429 -11.30885,-7.86016 -12.6987,-9.95051 -8.90111,-13.38728 2.37982,-2.15371 3.42012,-2.0874 4.91954,0.31355 0.67616,1.0827 2.6969,2.71953 4.49055,3.6374 1.79364,0.91788 8.15301,5.08666 14.13194,9.26397 l 10.87076,7.5951 -0.44255,13.86706 -0.44256,13.86706 3.32176,2.65044 3.32176,2.65043 0.0363,20 0.0363,20 4.21376,2 c 3.37745,1.60306 4.39097,2.71704 5.10661,5.61279 1.10167,4.4578 0.27921,7.99436 -2.65155,11.40158 -2.76807,3.21807 -9.00743,4.21015 -12.84803,2.04288 z m 7.5353,-7.12868 c 2.48021,-2.48021 1.77696,-5.44662 -1.58461,-6.68407 -1.83838,-0.67674 -4.84396,2.0436 -4.84396,4.38424 0,1.78952 1.95123,3.87126 3.62857,3.87126 0.67572,0 1.93572,-0.70714 2.8,-1.57143 z m 9.92512,-8.6028 c -1.19711,-0.57943 -2.41329,-2.37376 -2.75,-4.05732 C 498.27166,602.1083 498,582.17441 498,559.47091 v -41.2791 l -11.47456,-7.73906 c -14.14924,-9.54299 -15.20444,-10.61986 -13.93717,-14.22332 1.20471,-3.42557 3.67438,-3.93725 6.15453,-1.27513 1.05859,1.13626 7.51201,5.02497 14.34095,8.64159 6.82894,3.61661 14.06658,8.16709 16.08365,10.11218 2.96372,2.85795 4.57313,3.59706 8.38786,3.85208 2.59626,0.17357 5.07377,0.68104 5.50558,1.12771 0.43182,0.44668 0.91255,19.71214 1.06829,42.81214 l 0.28318,42 -3.56074,0.3017 -3.56074,0.30169 -0.63672,-5.30169 c -0.3502,-2.91594 -0.64064,-21.1642 -0.64542,-40.5517 -0.005,-19.3875 -0.34619,-35.25106 -0.75869,-35.25235 -0.4125,-10e-4 -2.31398,-1.339 -4.22552,-2.9727 -3.1593,-2.7001 -3.56874,-2.81362 -4.5,-1.24766 -0.669,1.12496 -0.9319,17.07668 -0.75766,45.97271 0.28382,47.06871 0.45166,45.43045 -4.41313,43.07577 z m -270.28463,-3.76193 c -1.19771,-0.75793 -1.39954,-5.93054 -1.23829,-31.73468 0.10597,-16.95604 0.47356,-35.89166 0.81688,-42.07916 L 231.27187,519 h 3.2377 3.2377 l 0.73809,40.86031 c 0.40595,22.47317 0.43249,41.82317 0.059,43 -0.72408,2.28137 -4.74824,2.92926 -7.47528,1.20353 z M 202.45042,582.5934 C 197.32849,580.36243 194,575.52986 194,570.3244 c 0,-9.37938 6.04395,-15.70902 15,-15.70902 11.78042,0 18.7148,12.00271 12.90574,22.33854 -1.15184,2.04942 -3.35877,4.47319 -4.90429,5.38615 -3.34943,1.97856 -10.31191,2.09978 -14.55103,0.25333 z m 11.15714,-9.11005 c 2.85008,-2.85008 2.5773,-5.80856 -0.80524,-8.73335 -2.91249,-2.51835 -6.32485,-2.17246 -8.72974,0.88486 -2.636,3.35112 -2.61313,5.16085 0.10173,8.05069 2.82884,3.01116 6.29417,2.93688 9.43325,-0.2022 z m 324.94817,8.24964 c -5.03531,-2.85208 -7.88825,-7.69117 -7.8044,-13.23762 0.0805,-5.32709 1.30838,-7.6764 5.80426,-11.10557 6.79976,-5.18643 16.87524,-3.88293 21.78761,2.81873 2.95565,4.03221 3.32096,12.41108 0.72161,16.55061 -4.46389,7.10884 -13.05948,9.19344 -20.50908,4.97385 z m 11.45849,-7.54342 c 4.44687,-3.60086 1.46533,-11.21606 -4.375,-11.17426 -6.24237,0.0447 -8.39028,8.7056 -2.94466,11.87357 2.65295,1.54334 4.80388,1.33784 7.31966,-0.69931 z M 176,568.27847 c -8.75568,-3.29002 -9.17141,-9.9816 -0.81746,-13.15777 1.47338,-0.56018 4.59577,-3.629 6.93864,-6.81961 4.4641,-6.07938 11.54038,-14.63498 21.00835,-25.40022 C 210.5989,514.40808 214,509.23299 214,506.36045 214,505.0622 214.37106,504 214.82458,504 c 1.37063,0 36.4934,-20.9501 38.87716,-23.18952 l 2.21705,-2.08282 1.16752,2.56243 c 2.31319,5.07689 0.74922,6.91752 -14.43916,16.99347 -7.90835,5.2464 -16.2392,10.48799 -18.51299,11.64799 -2.27379,1.16001 -4.13416,2.7973 -4.13416,3.63843 0,2.94996 -3.03525,7.33358 -12.22735,17.65922 -5.09996,5.72887 -12.83871,15.55843 -17.19722,21.84347 -8.13717,11.7339 -11.49136,15.98667 -12.49974,15.84838 -0.31663,-0.0434 -1.25069,-0.33258 -2.07569,-0.64258 z M 565.33445,554.25 c -6.47642,-8.1125 -15.32381,-18.79482 -19.66087,-23.73849 -4.33706,-4.94366 -9.16508,-11.52318 -10.72893,-14.62115 -2.37509,-4.70503 -3.55163,-5.9131 -7.14401,-7.33542 -5.69033,-2.25297 -26.27657,-16.1434 -29.3651,-19.81392 C 495.39066,485.12239 495.00736,479 497.82569,479 c 1.00412,0 2.91662,1.16311 4.25,2.58469 2.48501,2.6494 20.09764,13.84707 29.91779,19.02098 4.61354,2.43072 6.16948,4.02519 9.71378,9.95429 2.32116,3.88298 9.07409,12.67642 15.00651,19.54099 5.93243,6.86456 13.2273,15.50008 16.21084,19.19004 2.98353,3.68995 6.21337,6.70901 7.17742,6.70901 2.09748,0 5.89797,4.54495 5.89797,7.0533 0,1.70827 -5.56873,5.9467 -7.81316,5.9467 -0.5924,0 -6.37597,-6.6375 -12.85239,-14.75 z m -109.11194,-1.8067 c -3.3298,-2.33229 -3.10229,-8.60611 0.41235,-11.37072 1.44917,-1.13992 3.62943,-2.07258 4.84501,-2.07258 5.40124,0 7.57983,8.71639 3.20568,12.82569 -2.73235,2.56691 -5.40189,2.76172 -8.46304,0.61761 z M 136.25,545.3611 c -1.4916,-0.62977 -1.63494,-5.21844 -0.27475,-8.796 L 136.9505,534 l 15.27475,-0.0239 c 8.40111,-0.0131 17.06338,-0.43854 19.24949,-0.94537 2.86519,-0.66428 4.18688,-0.58783 4.73469,0.27385 1.10366,1.73604 0.959,5.47325 -0.24056,6.21462 -0.56711,0.3505 -6.85542,1.05024 -13.974,1.55498 -7.11858,0.50474 -14.86708,1.62435 -17.21887,2.48801 -5.86151,2.15256 -7.07959,2.40955 -8.526,1.79887 z m 238.2,-1.28587 c -0.5225,-0.50863 -7.475,-4.96049 -15.45,-9.89304 -7.975,-4.93254 -16.975,-10.52976 -20,-12.43827 -3.025,-1.90851 -10,-6.06678 -15.5,-9.24061 -5.5,-3.17383 -20.8,-12.17229 -34,-19.99658 -13.2,-7.82428 -27.74662,-16.39846 -32.32582,-19.05372 l -8.32582,-4.82775 0.25863,-71.91942 0.25863,-71.91942 3.56719,-2.25309 c 6.91923,-4.37029 28.64122,-17.91206 34.56719,-21.54964 3.3,-2.02566 17.25,-10.32728 31,-18.44804 13.75,-8.12077 27.25,-16.20676 30,-17.96887 2.75,-1.76212 9.5,-5.82066 15,-9.01898 5.5,-3.19831 10.7459,-6.46207 11.65755,-7.25278 1.8758,-1.62696 3.27962,-1.03483 14.34245,6.04967 7.7111,4.93808 13.7763,8.59666 31,18.69944 7.7,4.51653 16.925,10.04254 20.5,12.28002 3.575,2.23748 12.125,7.49943 19,11.69322 6.875,4.19379 19.75419,12.06432 28.62041,17.49007 l 16.12042,9.86499 0.48683,26.56379 c 0.47538,25.93872 0.47791,64.11636 0.007,100.81378 -0.16117,12.55101 -0.58054,18.25 -1.34296,18.25 -0.60973,0 -11.52223,6.21788 -24.25,13.81752 -12.72776,7.59964 -25.84139,15.3084 -29.14139,17.13059 -3.3,1.82219 -9.375,5.43474 -13.5,8.02788 -4.125,2.59314 -10.65,6.53301 -14.5,8.75528 -3.85,2.22226 -9.7,5.65267 -13,7.62313 -3.3,1.97046 -8.475,4.92121 -11.5,6.55722 -3.025,1.63601 -8.875,5.24904 -13,8.02894 -7.76275,5.23144 -8.94666,5.69543 -10.55,4.13467 z m 22.31755,-21.92407 C 407.6204,515.6343 422.575,506.8123 430,502.54673 c 7.425,-4.26558 17.325,-10.12202 22,-13.01432 4.675,-2.89231 16.7125,-10.11169 26.75,-16.04307 L 497,462.705 v -66.12028 -66.12028 l -13.25,-8.43609 c -7.2875,-4.63985 -17.975,-11.24646 -23.75,-14.68136 -5.775,-3.43491 -16.575,-9.97925 -24,-14.543 -7.425,-4.56375 -17.12686,-10.38442 -21.55969,-12.93483 -4.43283,-2.55041 -14.48005,-8.74327 -22.32717,-13.76192 l -14.26748,-9.1248 -10.67283,6.62773 c -5.87006,3.64525 -13.37283,8.33169 -16.67283,10.41432 -3.3,2.08263 -11.175,6.81571 -17.5,10.51795 -27.19489,15.91812 -50.3744,29.92339 -62.32534,37.65754 l -12.82534,8.30002 0.0743,66.5 c 0.0582,52.08368 0.34548,66.66889 1.32534,67.27905 0.6881,0.42848 5.97608,3.54199 11.75108,6.91891 5.775,3.37691 13.9626,8.31384 18.19467,10.97094 4.23206,2.65711 7.89464,4.8311 8.13905,4.8311 0.24441,0 6.30965,3.4875 13.4783,7.75 7.16866,4.2625 19.03109,11.25525 26.36095,15.53944 7.32987,4.2842 18.95203,11.33192 25.82703,15.66161 6.875,4.32969 12.8454,7.91194 13.26755,7.96056 0.42215,0.0486 9.64715,-5.24359 20.5,-11.76045 z m -22.10833,-10.7116 c -3.26675,-4.0941 -24.71418,-17.02571 -31.89579,-19.23141 -2.89488,-0.88911 -5.39621,-1.69494 -5.55849,-1.79075 -0.16228,-0.0958 4.07277,-8.21641 9.41122,-18.04579 5.33845,-9.82939 14.34113,-27.54075 20.00597,-39.35858 C 375.78298,413.90189 379,408.41701 379,411.90931 c 0,2.20113 20.04195,42.389 29.92761,60.01048 5.63059,10.03667 10.0878,18.33965 9.90491,18.45104 -0.18289,0.1114 -3.35038,1.15139 -7.03888,2.31109 -10.04821,3.15924 -23.54281,10.91173 -29.38639,16.88212 l -5.09275,5.20327 z m -56.54548,-31.64039 c -2.44035,-6.41861 -24.00702,-19.4971 -36.062,-21.86877 -5.04686,-0.99291 -6.03271,-1.50186 -5.4642,-2.82094 2.06114,-4.78242 3.59701,-12.41521 3.74459,-18.60946 0.15295,-6.41972 -0.23266,-7.87042 -4.6516,-17.5 -2.6501,-5.775 -5.06049,-11.0625 -5.35643,-11.75 -0.4236,-0.98405 5.81423,-1.25087 29.31891,-1.25408 26.8931,-0.004 53.74707,-1.47766 64.84219,-3.55912 1.93314,-0.36266 3.5148,-0.40586 3.5148,-0.096 0,0.30986 -1.96249,3.39744 -4.36108,6.86129 -9.90497,14.30392 -29.17411,45.80059 -39.2806,64.20671 -2.38842,4.34984 -4.55854,8.12475 -4.82248,8.38869 -0.26393,0.26394 -0.90388,-0.63531 -1.4221,-1.99832 z M 433.5,476.54304 c -7.32597,-13.25013 -22.00521,-37.17027 -33.65668,-54.84426 -7.81538,-11.85507 -12.1603,-19.31442 -11.35901,-19.50111 0.71372,-0.16628 8.43423,0.40094 17.15668,1.26049 16.62936,1.63874 69.4992,3.97292 75.14035,3.31742 2.04517,-0.23765 3.10801,0.0154 2.82124,0.67156 -7.34856,16.81618 -7.99835,19.07152 -8.40922,29.18716 -0.2917,7.18149 0.0309,11.64408 1.10733,15.31599 1.11206,3.79358 1.20827,5.26928 0.35914,5.50869 -0.63791,0.17985 -3.63483,0.8352 -6.65983,1.45633 -7.85888,1.6137 -18.75672,8.01481 -25.87187,15.19649 -3.37047,3.40198 -6.12813,6.56855 -6.12813,7.03681 0,2.15676 -1.75321,0.36242 -4.5,-4.60557 z m -97,-87.75264 c -11,-0.49726 -30.8699,-0.6888 -44.15533,-0.42563 l -24.15533,0.47849 6.1236,-12.66761 c 6.98854,-14.45686 7.89406,-19.77338 5.62611,-33.032 -0.71912,-4.20401 -1.24361,-7.83104 -1.16554,-8.06008 0.0781,-0.22904 3.25578,-1.20719 7.06155,-2.17368 13.2743,-3.37105 25.27881,-10.87839 29.19293,-18.25659 1.35772,-2.55931 2.71718,-4.6533 3.02103,-4.6533 0.30385,0 1.58715,2.1375 2.85178,4.75 7.25976,14.99736 35.03083,61.63086 42.87727,72 l 2.45931,3.25 -4.86869,-0.15274 C 358.69091,389.76325 347.5,389.28766 336.5,388.7904 Z m 51.5,0.73924 c 0,-0.27613 5.33022,-8.72076 11.84493,-18.76585 17.82815,-27.48936 28.38775,-44.40336 33.0971,-53.01379 2.33131,-4.2625 4.38031,-7.75 4.55334,-7.75 0.17302,0 1.45744,1.95014 2.85427,4.33364 1.39683,2.38351 4.43357,6.04466 6.74833,8.1359 5.47078,4.94253 17.68576,10.54944 24.519,11.25469 2.96067,0.30557 5.38303,0.8711 5.38303,1.25674 0,0.38564 -0.67013,2.91019 -1.48918,5.6101 -2.55281,8.41513 -1.97987,20.06612 1.44876,29.46078 1.62776,4.46019 4.10276,10.15482 5.5,12.65474 1.39723,2.49993 2.54019,4.82614 2.53992,5.16936 -2.8e-4,0.34323 -16.08778,0.62405 -35.75,0.62405 -19.66223,0 -41.487,0.34463 -48.4995,0.76584 -7.0125,0.42122 -12.75,0.53992 -12.75,0.2638 z M 369.97143,370.25 C 356.9877,342.05168 347.06199,322.18923 340.75832,311.79131 l -6.49208,-10.70869 4.61688,-0.66897 c 6.54882,-0.94889 19.51284,-5.81755 25.18837,-9.45953 5.41624,-3.47559 11.38256,-9.65861 12.39342,-12.84358 0.97503,-3.07202 1.73015,-2.63491 4.67415,2.70568 1.70065,3.08508 4.54532,6.0977 8,8.47232 6.00417,4.12705 20.39019,10.37255 26.11094,11.33571 2.0625,0.34725 3.74964,0.91135 3.7492,1.25356 -4.4e-4,0.3422 -3.16286,6.24719 -7.02759,13.12219 -3.86473,6.875 -13.30109,25.2125 -20.96968,40.75 -7.66859,15.5375 -14.11311,28.25 -14.32115,28.25 -0.20804,0 -3.22725,-6.1875 -6.70935,-13.75 z M 612.6933,544.35996 c -0.35202,-0.35201 -7.28952,-0.97548 -15.41667,-1.38546 -8.12715,-0.40999 -15.99689,-1.22928 -17.48832,-1.82065 -2.48134,-0.98388 -2.62443,-1.32552 -1.68446,-4.02192 l 1.02723,-2.9467 19.18446,-0.38304 c 10.55145,-0.21067 19.73505,0.0179 20.408,0.50787 1.86998,1.36161 2.71031,7.46226 1.26736,9.2009 -1.2365,1.48989 -6.09184,2.05476 -7.2976,0.849 z M 108.5,529.09943 c -5.76974,-2.54073 -9.248601,-10.41375 -6.98274,-15.80265 3.67699,-8.74498 14.47637,-10.75331 22.05282,-4.10111 l 3.52731,3.09703 17.20131,-1.15647 c 25.6166,-1.72225 25.36158,-1.7417 27.71203,2.11377 1.08973,1.7875 2.15357,3.7 2.36408,4.25 0.60614,1.58367 9.90912,-7.909 21.07034,-21.5 l 10.26528,-12.5 16.56884,-10.30603 c 9.11287,-5.66832 17.10401,-10.95087 17.7581,-11.73899 2.63851,-3.17922 4.07112,2.49928 2.00291,7.93908 -1.02558,2.69747 -2.54223,3.76785 -19.41563,13.70268 -9.45032,5.56422 -11.87443,7.57725 -18.5,15.36275 -11.95652,14.04973 -23.07409,25.87003 -26.22767,27.8855 -3.24175,2.07182 -3.6117,1.68057 -4.10844,-4.34499 L 173.5,518.5 158,518.59884 c -8.525,0.0544 -18.8832,0.42048 -23.01823,0.8136 -6.87791,0.65389 -7.65756,0.95754 -9.15425,3.56537 -0.89982,1.56784 -2.81061,3.62023 -4.2462,4.56087 -3.02845,1.98431 -10.18139,2.83774 -13.08132,1.56075 z m 8.67126,-7.75442 c 2.78879,-2.52382 2.38554,-7.13419 -0.74892,-8.56235 -3.19057,-1.45372 -5.51643,-0.21513 -6.90219,3.67559 -0.83348,2.34013 -0.63021,3.03421 1.36078,4.64642 2.86987,2.32388 3.94275,2.36487 6.29033,0.24034 z m 519.22925,7.2274 c -1.70473,-0.74211 -4.03458,-2.862 -5.17746,-4.71085 L 629.14508,520.5 h -24.41843 c -19.75223,0 -24.74918,0.27443 -26.14924,1.4361 -1.51424,1.2564 -2.14031,1.21556 -5.00356,-0.32639 -3.14993,-1.69635 -21.01959,-20.07992 -27.11847,-27.89835 -2.03814,-2.6128 -6.30017,-5.55265 -13.73244,-9.47236 -18.4702,-9.74099 -22.35671,-13.64827 -19.97634,-20.08304 l 0.83863,-2.26703 3.80722,3.0256 c 5.09443,4.04854 17.72119,11.19925 25.02952,14.17456 4.29375,1.74804 6.71941,3.51069 8.82232,6.41091 4.42093,6.09711 22.80328,26.45509 24.90194,27.57826 1.27301,0.68129 2.54707,0.62106 4.06677,-0.19225 1.63227,-0.87357 8.29908,-1.00427 25.40548,-0.49807 l 23.19247,0.6863 2.08163,-2.92338 c 4.90129,-6.88323 14.2584,-7.15974 20.02515,-0.59177 5.55743,6.32955 3.30927,15.77681 -4.53427,19.05405 -4.07654,1.70329 -5.99474,1.69546 -9.98295,-0.0407 z M 644,520 c 1.1,-1.1 2,-2.675 2,-3.5 0,-1.57937 -3.42796,-5.5 -4.80887,-5.5 -1.52117,0 -3.98859,2.49801 -4.64131,4.69885 -0.44953,1.51572 -0.0149,2.83608 1.39903,4.25 2.55907,2.55907 3.53498,2.56732 6.05115,0.0512 z M 285.03086,508.53719 c -0.98192,-1.18315 -0.67076,-2.23058 1.62756,-5.47865 1.56287,-2.20871 3.12923,-4.02545 3.4808,-4.03719 0.35156,-0.0117 1.69421,0.83294 2.98365,1.87706 2.30774,1.86869 2.31755,1.9548 0.62696,5.5 -1.38769,2.91003 -2.27311,3.60159 -4.61121,3.60159 -1.59155,0 -3.44004,-0.65827 -4.10776,-1.46281 z m 177.19165,-0.0939 c -2.60716,-1.82612 -2.90301,-5.61994 -0.61656,-7.90639 1.9171,-1.9171 3.67355,-0.83088 6.03234,3.73051 2.65987,5.14362 -0.52648,7.60048 -5.41578,4.17588 z m 101.33221,-29.38853 -20.83687,-20.85461 -11.10893,-0.71759 c -6.1099,-0.39467 -12.79642,-1.38857 -14.85892,-2.20866 -3.22048,-1.28052 -3.75019,-1.93466 -3.75138,-4.63249 l -10e-4,-3.14142 15.75138,0.25033 15.75138,0.25032 21.02278,21.49968 21.02277,21.49967 h 24.73666 24.73667 l -0.25944,-4.49506 c -0.14269,-2.47229 -0.25944,-4.57892 -0.25944,-4.68141 0,-0.1025 -9.852,-0.44222 -21.89332,-0.75494 -19.29334,-0.50107 -22.02274,-0.77419 -22.98305,-2.29983 -0.82827,-1.31586 -0.72819,-2.09277 0.41714,-3.2381 1.24575,-1.24575 6.49283,-1.60068 30.28044,-2.04829 l 28.77357,-0.54144 2.95261,2.95261 C 655.45685,478.303 656,479.68757 656,483.4202 c 0,3.8401 -0.57292,5.20819 -3.57057,8.52623 -2.8983,3.20807 -4.45161,4.06474 -8.25,4.55 -2.57368,0.32879 -8.50443,1.21228 -13.17943,1.9633 -4.93773,0.79323 -16.48545,1.38313 -27.5542,1.40758 l -19.0542,0.0421 -20.83688,-20.85461 z m 84.98983,6.80486 c 0.8582,-2.70394 -1.35843,-5.0206 -4.45895,-4.66019 -3.63261,0.42227 -4.30717,5.41122 -0.90274,6.67655 2.92965,1.08886 4.57219,0.47115 5.36169,-2.01636 z M 126,497.8155 c -3.025,-0.51425 -8.23578,-0.8955 -11.57951,-0.84722 -4.76566,0.0688 -6.66095,-0.36959 -8.76998,-2.02855 -3.21873,-2.53185 -5.23107,-6.18701 -6.174287,-11.21478 -0.626804,-3.34115 -0.346761,-4.05441 2.845057,-7.24623 l 3.54029,-3.54029 28.81921,0.44803 c 15.85057,0.24641 28.93172,0.48527 29.06922,0.53078 0.1375,0.0455 0.25,1.37651 0.25,2.95776 0,3.74171 -0.61275,3.85156 -26.37957,4.72911 L 117,482.3064 v 2.65567 c 0,1.46062 0.63942,3.52918 1.42093,4.5968 1.34932,1.84332 2.59489,1.92368 24.71849,1.59479 15.45666,-0.22977 23.8493,-0.73461 24.93691,-1.5 6.90426,-4.8588 30.99502,-29.13316 38.45029,-38.74333 1.97441,-2.5451 2.29693,-2.60182 18.74118,-3.2963 L 242,446.90739 l -0.0153,2.29631 c -0.0363,5.45028 -3.74397,6.99012 -18.27139,7.58843 l -11.85,0.48804 -7.08173,8.10991 c -3.89495,4.46046 -13.10656,13.84742 -20.47025,20.85992 L 170.9228,499 151.2114,498.87524 C 140.37013,498.80663 129.025,498.32974 126,497.8155 Z m -12,-13.19887 c 0,-4.21992 -3.1934,-5.6063 -5.45994,-2.37036 C 106.62985,484.97348 108.20531,488 111.53518,488 113.66927,488 114,487.54601 114,484.61663 Z m 148.95041,8.82362 c -1.56123,-1.88117 -0.32385,-6.18492 2.24105,-7.79463 2.03699,-1.27839 5.80854,1.60322 5.80854,4.43794 0,4.11262 -5.51395,6.41195 -8.04959,3.35669 z M 484.5567,492.77749 C 483.70052,491.55512 483,490.00563 483,489.3342 483,488.12551 486.74758,485 488.19683,485 c 1.12373,0 3.80317,5.60123 3.80317,7.95034 0,2.96185 -5.33444,2.83797 -7.4433,-0.17285 z m 99.02241,-30.6986 c -2.4763,-1.96839 -9.13214,-7.81432 -14.79074,-12.99097 L 558.5,439.67585 l -22.81062,0.22602 -22.81063,0.22603 0.31063,-4.31395 L 513.5,431.5 l 24.2886,-0.26787 24.28859,-0.26786 12.45185,12.22276 c 6.84851,6.72252 13.10559,12.58862 13.90461,13.03578 0.79902,0.44715 12.25825,0.69245 25.46496,0.5451 L 637.9108,456.5 l -4.19016,-5.67307 c -6.39343,-8.65608 -6.58314,-8.71543 -25.22064,-7.89065 -14.33025,0.63417 -16.26685,0.52514 -18.55703,-1.04479 C 586.53334,439.55416 573,425.26078 573,423.99699 573,423.35649 562.27286,423 543,423 h -30 v -4.5 -4.5 h 23.83647 c 13.11006,0 40.13242,0.29837 60.04969,0.66305 l 36.21322,0.66304 4.80118,5.74592 c 2.64064,3.16026 7.18422,7.69939 10.09682,10.08696 8.38095,6.87016 11.00576,14.0667 7.56054,20.72902 -1.82412,3.52747 -11.08456,9.95989 -16.17643,11.23636 -2.13482,0.53517 -12.20649,1.18655 -22.38149,1.44751 -10.175,0.26095 -20.84416,0.61204 -23.70925,0.78019 -4.69321,0.27545 -5.65528,-0.0488 -9.71164,-3.27316 z m 63.03611,-12.8442 C 649.63625,447.24448 648.83957,440 645.59967,440 643.95386,440 639,443.80759 639,445.07258 c 0,1.37077 3.80387,4.92982 5.25,4.91211 0.6875,-0.008 1.75185,-0.34592 2.36522,-0.75 z m -7.51323,-13.89971 c 1.16938,-1.8921 1.96231,-3.55781 1.76208,-3.70158 -0.20024,-0.14377 -2.5677,-2.02849 -5.26102,-4.18827 l -4.89695,-3.92688 -23.10305,-0.65377 c -12.70668,-0.35957 -23.97988,-1.0086 -25.05157,-1.44229 -1.85941,-0.75247 -1.852,-0.65297 0.16212,2.1756 1.16086,1.63027 4.28769,4.99052 6.94852,7.46721 l 4.83788,4.50307 9,-0.69696 c 4.95,-0.38333 12.50125,-0.73614 16.78055,-0.78404 7.69178,-0.0861 7.81583,-0.0469 10.87212,3.43403 3.46994,3.95204 4.29615,3.72483 7.94932,-2.18612 z M 133.5,464.05144 c -12.71646,-0.36907 -19.7441,-0.97647 -21.25,-1.83662 -6.72838,-3.8432 1.28328,-5.33881 27.62867,-5.15768 18.34556,0.12614 22.31792,-0.10744 24.94676,-1.46687 2.9953,-1.54893 20.64371,-17.65607 24.47798,-22.34027 1.82215,-2.22605 2.11236,-2.25 27.26917,-2.25 L 242,431 v 3.88337 c 0,3.18187 -0.40644,3.99229 -2.25,4.48634 -1.2375,0.33164 -12.04031,0.60913 -24.00625,0.61664 L 193.9875,440 182.74375,450.82213 c -14.88956,14.33122 -14.70453,14.21981 -23.21626,13.97931 -3.86512,-0.1092 -15.57749,-0.4467 -26.02749,-0.75 z m -30.35652,-9.58417 C 98.62935,450.66889 97.38194,445.92418 99.670484,441.25725 101.624,437.27353 107.07009,433 110.19334,433 c 1.98657,0 6.14214,3.58167 7.02733,6.05682 0.39709,1.11033 1.21234,0.79073 3.53483,-1.38575 l 3.01871,-2.82893 16.54961,0.25351 16.54961,0.25351 5.77493,-4.75425 c 5.45558,-4.49133 8.98612,-8.37043 8.20364,-9.01356 -0.1936,-0.15912 -4.402,0.11904 -9.352,0.61813 -4.95,0.49909 -19.20572,0.77088 -31.67937,0.60398 -25.91663,-0.34678 -26.68254,-0.57585 -30.20491,-9.03381 -2.36652,-5.68252 -1.59876,-10.63788 2.32932,-15.03417 2.41002,-2.69728 3.49487,-3.16028 7.19639,-3.07131 2.39721,0.0576 33.27102,0.26925 68.60847,0.4703 l 64.2499,0.36553 1e-4,4.16023 1e-4,4.16023 -8.75,0.736 c -4.8125,0.4048 -26.525,0.21362 -48.25,-0.42484 -21.725,-0.63845 -45.2375,-1.15426 -52.25,-1.14622 L 120,404 v 2.375 c 0,1.30625 -0.29482,3.84911 -0.65516,5.65081 l -0.65516,3.2758 43.90516,-0.65212 C 186.74268,414.29082 214.6,413.94782 224.5,413.88725 l 18,-0.11011 -0.32321,3.8513 c -0.17776,2.11822 -0.50505,4.03316 -0.72731,4.25541 -0.22225,0.22226 -14.36431,0.62795 -31.42679,0.90155 C 187.9311,423.13963 179,423.60799 179,424.41227 c 0,0.62118 -4.00301,5.11389 -8.89558,9.98379 l -8.89557,8.85436 -17.60443,-0.17869 C 133.92199,442.97344 126,443.2861 126,443.76652 c 0,2.01415 -7.69572,9.64474 -11.44419,11.34735 -5.47064,2.48484 -7.85112,2.34997 -11.41233,-0.6466 z m 11.40197,-7.92182 c 2.71077,-2.71076 3.07037,-4.52963 1.25455,-6.34545 -2.0157,-2.0157 -5.63669,-1.37888 -7.39196,1.3 -1.51741,2.31587 -1.51741,2.68413 0,5 2.04648,3.12332 3.0521,3.13077 6.13741,0.0455 z M 112.8,411.8 c 0.66,-0.66 1.2,-2.47114 1.2,-4.02475 0,-2.15393 -0.64601,-3.07036 -2.72028,-3.859 -2.22141,-0.84458 -2.95496,-0.7133 -4,0.71588 -1.72134,2.35407 -1.61239,4.89234 0.29171,6.79644 1.87901,1.87902 3.59881,2.00119 5.22857,0.37143 z m 526.71885,4.91885 c -1.80463,-1.80463 -4.08125,-5.53389 -5.05916,-8.28726 l -1.77801,-5.00611 -6.09084,0.25027 c -30.75441,1.26367 -83.26325,2.44077 -96.59084,2.1653 L 513.5,405.5 l -0.3075,-4.25 -0.3075,-4.25 24.8075,-0.006 c 13.64413,-0.003 40.55776,-0.29698 59.80807,-0.653 31.567,-0.58381 35.1327,-0.48811 36.34742,0.97554 1.2285,1.48025 1.66626,1.40582 4.98157,-0.84699 C 640.82865,395.11143 643.54419,394 644.8641,394 650.25348,394 658,401.64686 658,406.9669 c 0,3.69052 -3.14408,9.14979 -6.41996,11.14742 -4.64598,2.83311 -8.24953,2.41619 -12.06119,-1.39547 z m 9.32523,-8.276 c 1.76219,-3.86757 -0.0869,-6.64588 -4.16052,-6.25125 -2.65566,0.25726 -3.237,0.77443 -3.50582,3.11887 -0.64168,5.59627 5.41599,8.07136 7.66634,3.13238 z M 581.2,390.8 c -0.66,-0.66 -1.19922,-1.8975 -1.19828,-2.75 0.002,-1.35863 -1.81958,-1.47177 -14.75,-0.91639 -8.11344,0.34849 -23.21388,0.68599 -33.55651,0.75 L 512.89042,388 l 0.30479,-4.75 0.30479,-4.75 27.25,-0.26607 c 16.40386,-0.16017 27.25,-0.64511 27.25,-1.21838 0,-1.61387 15.82637,-18.62322 20.05396,-21.55294 l 3.99041,-2.76536 25.71257,0.21946 c 14.14191,0.12071 25.86839,0.37529 26.05884,0.56573 0.83716,0.83717 -2.01878,4.45155 -4.06472,5.14417 -1.23808,0.41913 -11.86244,0.7871 -23.60969,0.81772 l -21.35863,0.0557 -4.51789,3.92983 c -6.19209,5.38611 -13.26346,14.60102 -13.26422,17.28499 -3.5e-4,1.21815 0.91741,2.70613 2.03945,3.30663 1.75042,0.9368 2.75967,0.44484 7.10815,-3.46482 L 591.21631,376 603.35815,375.994 C 620.23946,375.98567 632,374.97467 632,373.53178 c 0,-0.64448 1.59598,-3.03633 3.54662,-5.31522 5.75355,-6.72172 13.3228,-6.72576 18.97363,-0.0101 8.10327,9.63019 -5.086,25.20645 -16.39274,19.35951 -1.52525,-0.78874 -3.3043,-2.07403 -3.95345,-2.85621 -0.96266,-1.15993 -4.72888,-1.36504 -20.42716,-1.11247 l -19.2469,0.30966 -4.65813,4.04654 c -4.88836,4.24655 -6.65873,4.82968 -8.64187,2.84654 z M 647,379 c 2.40228,-2.40228 2.56879,-5.28836 0.42857,-7.42857 -1.95218,-1.95218 -2.438,-1.95356 -5.20606,-0.0147 -2.59211,1.81559 -2.90648,5.61647 -0.65108,7.87187 2.05846,2.05846 3.01723,1.98277 5.42857,-0.42857 z m -538.58156,9.07771 c -3.20792,-1.3695 -7.26753,-6.75639 -7.98871,-10.60057 -0.894537,-4.76831 0.15988,-8.2206 3.54456,-11.60527 5.91215,-5.91216 16.39048,-2.80279 20.68129,6.13702 l 2.15557,4.49111 17.34443,0.64215 c 9.53943,0.35318 19.98434,0.98405 23.21091,1.40192 l 5.86649,0.75978 -1.26274,-2.40192 c -2.56911,-4.88684 -9.28035,-11.95821 -16.52153,-17.40808 C 151.35192,356.41052 148,353.26836 148,352.51128 c 0,-1.7352 3.12336,-2.77403 5.60912,-1.8656 6.13876,2.24344 18.10103,12.54887 25.07773,21.60432 l 4.43004,5.75 h 29.99905 29.99906 l -0.3075,4.25 -0.3075,4.25 -46.5,-0.0652 c -26.75238,-0.0375 -52.15083,-0.56348 -59.80609,-1.23847 -12.75576,-1.12472 -13.41887,-1.08986 -16.03306,0.84289 -3.17071,2.34421 -8.75536,3.31372 -11.74241,2.03851 z m 9.248,-10.65084 C 118.46235,375.35275 115.3019,371 113,371 c -1.07464,0 -2.72925,1.18334 -3.6769,2.62963 -1.68588,2.57299 -1.66356,2.68077 1.03654,5.0033 2.22914,1.91742 3.14336,2.16824 4.75644,1.30495 1.09829,-0.58779 2.24595,-1.71775 2.55036,-2.51101 z M 513.20724,365 513.5,360.5 527,360.37771 c 23.49389,-0.21281 23,-0.16551 23,-2.20253 0,-1.00365 4.75328,-7.13615 10.56285,-13.62778 5.80957,-6.49163 12.4281,-14.33296 14.70784,-17.42518 2.27975,-3.09222 6.92212,-8.58405 10.31639,-12.20406 3.39427,-3.62001 6.47376,-7.53449 6.84331,-8.69885 0.36955,-1.16435 1.4364,-2.34002 2.37076,-2.6126 1.37223,-0.40031 22.84513,-3.90566 37.78044,-6.16747 1.69488,-0.25667 4.0674,-1.60045 5.27227,-2.98618 4.88791,-5.62158 12.56537,-4.92052 16.94098,1.54694 2.96118,4.37684 2.44705,9.09431 -1.43246,13.14365 -5.25217,5.48208 -13.69721,4.34294 -16.51842,-2.22815 l -1.34396,-3.13031 -7.86009,0.63999 c -4.32306,0.35199 -9.49806,1.33788 -11.5,2.19087 -2.00195,0.85299 -7.52736,2.30083 -12.27868,3.21742 l -8.63877,1.66653 -4.64367,6 c -2.55401,3.3 -7.27117,9.825 -10.48256,14.5 -3.21139,4.675 -9.70876,12.55 -14.43861,17.5 -4.72984,4.95 -8.61275,9.61254 -8.62867,10.3612 -0.0159,0.74866 3.00855,-1.40907 6.72105,-4.79495 3.7125,-3.38589 9.70297,-8.36055 13.31216,-11.05481 3.60919,-2.69426 7.43382,-6.51722 8.49917,-8.49547 l 1.93701,-3.5968 25.50083,0.29041 c 15.68346,0.17862 27.23325,-0.12111 30.00083,-0.77854 6.09496,-1.44784 10.56132,-0.18003 12.48742,3.54463 2.12423,4.10781 1.89298,6.4188 -0.98447,9.83846 -3.40619,4.04802 -7.21922,4.91404 -9.88758,2.24568 C 642.91282,345.35726 642.83404,345 644.16115,345 c 1.9076,0 2.96756,-3.21198 1.69597,-5.1393 -0.72086,-1.09259 -1.25258,-0.93906 -2.69854,0.77916 -1.14908,1.36544 -2.31792,1.86562 -3.22969,1.38209 -0.78589,-0.41678 -12.33662,-1.05709 -25.6683,-1.42291 L 590.02118,339.93391 574.76059,354.44465 559.5,368.95539 549,369.20581 c -5.775,0.13774 -16.25674,0.26027 -23.29276,0.27231 L 512.91449,369.5 Z M 648.8084,302.31644 c 0.42729,-4.41081 -2.83249,-6.29235 -5.78548,-3.33936 -3.47219,3.47219 -1.7736,7.37025 2.97006,6.8159 2.01001,-0.2349 2.56816,-0.92411 2.81542,-3.47654 z M 192.46811,364.75 c -1.30873,-7.8595 -3.33775,-11.12761 -11.60197,-18.68715 -6.28266,-5.74694 -8.72253,-8.78509 -10.83362,-13.49015 -1.4986,-3.33998 -3.5163,-6.72957 -4.48378,-7.53241 -0.96747,-0.80285 -3.50685,-4.03347 -5.64306,-7.17918 -2.1362,-3.1457 -4.78888,-6.00665 -5.89484,-6.35767 C 152.90488,311.15242 152,310.23638 152,309.4678 c 0,-2.60685 -4.12242,-3.61889 -17.09036,-4.19563 l -12.93695,-0.57537 -3.83273,4.1516 c -2.80599,3.03943 -4.61059,4.1506 -6.73635,4.14786 C 105.50707,312.98867 99,306.65964 99,300.93201 c 0,-1.19202 1.74706,-3.91436 3.88235,-6.04966 5.29988,-5.29987 9.93086,-5.42047 14.68242,-0.38235 3.12528,3.31376 3.65248,3.5 9.90792,3.5 4.72164,0 7.77229,0.59449 10.69065,2.08333 2.38146,1.21493 8.09027,2.58651 13.69566,3.29047 l 9.61199,1.20714 4.31162,5.95953 c 2.37139,3.27774 5.66414,8.86684 7.31721,12.42023 2.34013,5.03023 5.52858,9.01561 14.40069,18 6.26731,6.34661 12.07148,13.15944 12.89817,15.13961 l 1.50307,3.6003 11.29912,0.60845 c 6.21452,0.33465 15.23689,0.51451 20.04971,0.3997 l 8.75057,-0.20876 -5.7e-4,4.25 L 242,369 h -24.4121 -24.4121 z m -79.03544,-59.6756 c 2.0504,-2.26566 1.77027,-4.91736 -0.68267,-6.4621 -3.91454,-2.4652 -7.90534,4.33851 -4.15384,7.08167 2.34522,1.71487 2.77353,1.66 4.83651,-0.61957 z m -8.04455,48.94553 c -1.16154,-0.46931 -3.10931,-2.12131 -4.32838,-3.67111 -1.855092,-2.35837 -2.106098,-3.55408 -1.539422,-7.33332 0.372391,-2.48353 1.079202,-5.26696 1.570702,-6.18541 1.36198,-2.54513 7.39324,-4.13452 12.68052,-3.34164 2.54187,0.38118 14.94277,0.11427 27.55757,-0.59312 l 22.936,-1.28616 1.86744,2.3062 c 1.0271,1.26841 1.86745,3.20399 1.86745,4.3013 0,1.86819 -0.52478,1.96681 -8.25,1.55029 -9.26778,-0.49969 -40.43502,0.92033 -42.04547,1.91565 -0.57456,0.3551 -2.82904,0.68428 -5.00994,0.73151 -2.53889,0.055 -4.34538,0.68523 -5.02194,1.75206 -1.47547,2.32654 0.79766,4.83382 4.38241,4.83382 3.20842,0 5.18303,3.60082 2.80195,5.10953 -1.70463,1.08011 -6.69068,1.03293 -9.46889,-0.0896 z m 128.82992,-4.4985 c -5.78061,-2.69118 -24.54229,-13.6696 -33.15739,-19.40209 -2.99165,-1.99064 -11.76665,-10.46457 -19.5,-18.83097 L 167.5,296.07674 149.25,296.03837 131,296 v -3.5 c 0,-1.925 0.3375,-3.50107 0.75,-3.50239 0.4125,-0.001 9.56516,-0.24527 20.33924,-0.54212 l 19.58924,-0.53974 2.60712,3.79213 c 1.43392,2.08566 8.14376,9.45376 14.91076,16.37355 10.38771,10.62224 14.20063,13.75203 24.48568,20.09879 6.70013,4.13455 16.03763,9.25384 20.75,11.3762 7.70093,3.46833 8.56796,4.13312 8.56796,6.56941 0,3.5501 -0.93504,5.87655 -2.35699,5.8644 -0.62865,-0.005 -3.51989,-1.11633 -6.42497,-2.4688 z M 513,347.06243 c 0,-4.42281 -2.06774,-2.98331 23,-16.01195 12.3135,-6.39979 20.46818,-13.24169 31.04887,-26.05048 2.95312,-3.575 7.62235,-8.8625 10.37606,-11.75 L 582.43168,288 H 603.21584 624 v 3.375 c 0,2.98 -0.36574,3.44815 -3.125,4 -1.71875,0.34375 -10.23267,0.625 -18.91981,0.625 h -15.79482 l -4.96009,5.25 c -2.72804,2.8875 -7.20824,7.95 -9.95598,11.25 -9.18697,11.0334 -23.43185,24.11502 -27.7443,25.47865 -2.2,0.69565 -9.12703,3.91004 -15.39341,7.14309 C 514.26856,352.26127 513,352.42423 513,347.06243 Z M 230.47699,324.82987 c -6.03734,-3.39357 -14.33707,-8.00607 -18.44383,-10.25 -4.76319,-2.6026 -8.30832,-5.34718 -9.79081,-7.57987 -1.27818,-1.925 -7.80372,-9.937 -14.50119,-17.80444 l -12.17723,-14.30443 -24.13206,0.17999 -24.13207,0.17999 -2.62377,3.28827 c -5.42942,6.80448 -14.56662,6.76607 -20.58329,-0.0865 -4.386311,-4.99574 -4.303477,-10.16108 0.2425,-15.1216 2.92176,-3.18819 4.04178,-3.69797 9.03433,-4.11199 5.61586,-0.46571 5.75683,-0.41192 9.652,3.68275 l 3.9529,4.15537 26.11716,-0.091 c 14.36444,-0.05 26.24057,0.0496 26.39139,0.22131 11.62261,13.2349 27.02377,31.83045 27.83238,33.60516 0.68931,1.51287 4.03632,3.86604 9.13622,6.42336 4.42661,2.21971 12.21088,6.48037 17.29838,9.46813 l 9.25,5.43229 v 4.44166 c 0,2.44292 -0.34785,4.44167 -0.77301,4.44167 -0.42515,0 -5.71265,-2.77656 -11.75,-6.17013 z M 117.17126,274.34501 C 120.63004,271.21486 118.81025,267 114,267 c -4.67376,0 -6.62641,4.23074 -3.42857,7.42857 2.02376,2.02377 4.30315,1.99491 6.59983,-0.0836 z M 512,324.7374 v -4.2626 l 15.11575,-7.9874 15.11575,-7.9874 9.13425,-10.89919 c 5.02384,-5.99455 12.30178,-14.52438 16.17321,-18.95517 l 7.03897,-8.05598 26.96103,0.2674 26.96104,0.26741 2.72387,-3.47606 c 5.78802,-7.38636 16.09754,-6.75905 20.60085,1.25351 2.78354,4.95264 2.75609,8.94045 -0.0906,13.16468 -4.88769,7.25284 -14.53889,7.64402 -20.81687,0.84374 L 627.30722,275 h -24.49468 -24.49467 l -7.17753,8.18518 c -3.94763,4.50185 -10.43165,12.34321 -14.40893,17.42524 -5.25757,6.71796 -8.59618,9.98021 -12.23141,11.95169 -2.75,1.49139 -10.65527,5.80003 -17.56726,9.57475 -6.912,3.77473 -13.0995,6.86314 -13.75,6.86314 C 512.4574,329 512,327.35153 512,324.7374 Z M 643.42857,274.42857 C 646.60379,271.25336 644.77847,266 640.5,266 c -2.72165,0 -4.5,1.82916 -4.5,4.62857 0,2.48494 2.4182,5.37143 4.5,5.37143 0.74643,0 2.06429,-0.70714 2.92857,-1.57143 z m -144.26805,39.02438 c -1.5497,-3.40121 -1.46234,-5.57703 0.32646,-8.13089 1.67832,-2.39615 19.53215,-13.0959 29.06308,-17.41743 l 6.28487,-2.8497 0.70164,-6.55178 c 0.61821,-5.7728 1.19278,-7.11364 4.83253,-11.27747 10.22936,-11.70222 14.9929,-17.59523 21.68479,-26.8264 3.94691,-5.44461 8.57234,-11.82778 10.27872,-14.18483 3.28253,-4.53422 6.05292,-5.83647 10.2014,-4.79527 6.45217,1.61939 4.88017,9.56625 -2.28134,11.53275 -2.94302,0.80814 -4.59964,2.27294 -7.67834,6.78927 -4.71087,6.91068 -15.86674,21.25658 -23.629,30.38575 -5.10848,6.00807 -5.69283,7.18315 -6.25719,12.58269 -0.34238,3.27565 -0.88883,6.59352 -1.21434,7.37304 -0.32551,0.77953 -7.66571,4.87424 -16.31157,9.09937 -16.99938,8.30739 -20.82259,10.79444 -22.21216,14.44927 -1.16183,3.05586 -2.34123,3.00035 -3.78955,-0.17837 z M 247,308.59776 c -4.125,-2.33118 -13.23608,-7.26869 -20.24684,-10.97225 -12.58678,-6.6492 -12.75482,-6.78371 -13.38322,-10.7135 -0.74389,-4.65203 -3.02686,-7.95842 -17.06421,-24.71391 -5.72243,-6.83049 -11.12927,-13.60685 -12.01522,-15.05859 -6.72638,-11.02204 -7.6932,-12.10079 -10.8662,-12.1242 C 170.6263,234.99467 167,230.95567 167,227.85986 c 0,-1.38954 1.12315,-3.56638 2.5145,-4.87349 3.69122,-3.46771 6.27884,-1.96011 13.75441,8.01363 19.21514,25.63641 25.01276,32.96637 29.62563,37.45581 3.63071,3.53356 5.25574,5.97293 5.66242,8.5 0.3137,1.9493 0.94645,4.47851 1.40611,5.62046 0.88325,2.19429 9.62214,7.70457 21.95977,13.84666 10.39925,5.1771 15.82424,8.45792 16.31844,9.86877 0.72347,2.06532 -0.75558,6.18906 -2.28513,6.37118 -0.80088,0.0954 -4.83115,-1.73394 -8.95615,-4.06512 z m 239.05019,-1.03729 c -3.0017,-3.61682 0.94882,-10.30314 4.69981,-7.95449 3.65019,2.28553 2.32595,9.39402 -1.75,9.39402 -0.96531,0 -2.29273,-0.64779 -2.94981,-1.43953 z m -223.66066,-0.98774 c -1.19421,-3.11209 0.0555,-6.06634 2.69607,-6.37329 3.61946,-0.42074 5.55302,2.10353 4.08286,5.33017 -1.26315,2.77232 -5.84483,3.47733 -6.77893,1.04312 z m 13.05237,-7.53083 c -0.52695,-0.52695 -7.02945,-3.69181 -14.45,-7.03302 -7.42054,-3.3412 -17.42188,-8.42255 -22.22518,-11.2919 l -8.73328,-5.21698 -0.0167,-40.59912 c -0.009,-22.32952 0.27077,-44.00012 0.62214,-48.15688 0.63561,-7.51926 0.65472,-7.56018 3.75,-8.03236 1.71113,-0.26102 3.18279,-0.41543 3.27036,-0.34311 0.0876,0.0723 0.42758,21.02149 0.75559,46.55373 0.32801,25.53224 0.70636,46.45724 0.84078,46.5 0.13443,0.0428 1.81941,0.91833 3.74441,1.94573 1.925,1.02739 9.35,4.54306 16.5,7.81259 16.04908,7.33889 23.5,11.73833 23.5,13.87572 0,3.40943 -5.32582,6.21788 -7.5581,3.9856 z m 198.59797,-0.49386 c -1.99676,-2.40595 -0.78633,-4.77765 4.4667,-8.752 C 483.32895,286.14751 512.6568,271 514.89852,271 c 1.26946,0 1.33343,-2.33933 1.49024,-54.5 l 0.11124,-37 3.75,-0.31037 3.75,-0.31036 0.17829,21.31036 c 0.2386,28.519 -0.22506,71.91087 -0.79021,73.95282 -0.25002,0.90335 -1.90212,2.23126 -3.67133,2.95092 -1.76921,0.71965 -5.46675,2.63141 -8.21675,4.24835 -2.75,1.61694 -8.6,4.73376 -13,6.92626 -4.4,2.19251 -11.00351,5.72915 -14.67447,7.8592 -7.45716,4.32697 -8.07656,4.4802 -9.78566,2.42086 z m -12.29699,-7.17478 c -3.38378,-1.77294 -3.55002,-4.7983 -0.37786,-6.87678 4.30817,-2.82282 10.62354,1.40252 7.5791,5.07085 -2.32887,2.80612 -4.33306,3.30873 -7.20124,1.80593 z m -175.05579,-2.17798 c -3.32255,-3.468 -3.33585,-3.99812 -0.13089,-5.21665 5.09846,-1.93843 10.71479,3.35038 7.2438,6.82137 -1.92386,1.92386 -4.23099,1.40336 -7.11291,-1.60472 z m 162.87935,-5.53793 C 448.1549,282.24581 447,280.65825 447,280.12944 c 0,-0.89109 4.83125,-4.03659 22.32366,-14.53434 l 6.82366,-4.0951 -0.32142,-16.69676 -0.32143,-16.69677 3.35241,-3.45881 3.35241,-3.45881 -0.46111,-17.55089 c -0.38047,-14.48177 -0.76642,-18.01685 -2.20705,-20.21554 -3.89876,-5.95025 -1.43029,-13.17216 5.71773,-16.72818 7.33278,-3.64793 15.74114,0.88035 15.74114,8.47731 0,4.95128 -2.27282,8.41682 -7.15275,10.90638 L 490,188.04065 v 14.83045 c 0,8.4281 0.48687,16.22708 1.12778,18.0656 1.07258,3.07681 0.91283,3.46342 -3.26392,7.89922 l -4.3917,4.66408 0.54299,12.5 c 0.42105,9.69286 0.94516,13.10211 2.33382,15.18115 1.75673,2.6301 1.74666,2.70872 -0.52907,4.12926 -17.87273,11.15644 -24.02234,14.81547 -26.43873,15.73108 -1.58464,0.60046 -3.86377,2.01211 -5.06473,3.13702 l -2.18356,2.04528 z m 41.4993,-103.69253 c 2.74408,-1.46859 2.54477,-5.80233 -0.31574,-6.86564 -1.2375,-0.46001 -2.81638,-0.62087 -3.50863,-0.35748 -1.86213,0.70853 -2.65257,5.0579 -1.23059,6.77129 1.45883,1.75778 2.44934,1.84631 5.05496,0.45183 z M 293,279.57353 c -5.225,-2.85576 -12.31597,-6.69864 -15.7577,-8.53973 -3.44174,-1.84108 -6.6487,-3.83936 -7.12658,-4.44061 -0.48626,-0.61181 -0.50426,-5.4967 -0.0409,-11.09319 0.45541,-5.5 0.84987,-12.90603 0.87657,-16.45784 0.0449,-5.97175 -0.20198,-6.72446 -3.27999,-10 L 264.3429,225.5 264.99602,207 c 0.35922,-10.175 0.39457,-18.78292 0.0786,-19.12871 -0.31601,-0.34579 -2.26207,-0.92868 -4.32457,-1.29531 l -3.75,-0.66661 v 42.93182 42.93181 l -3.25,0.49498 c -1.7875,0.27223 -3.475,0.28641 -3.75,0.0315 -1.17741,-1.09137 -1.10755,-68.20303 0.082,-78.79949 0.67918,-6.05 1.31725,-12.8 1.41793,-15 0.25395,-5.54937 2.78808,-9.93427 6.85712,-11.86516 6.50972,-3.08906 13.07535,-1.2537 16.6834,4.66371 2.48371,4.07341 2.47288,7.27325 -0.0405,11.96263 -1.78431,3.32915 -2,5.64209 -2,21.44734 v 17.71578 l 4.09624,4.17376 c 3.31033,3.37298 3.91196,4.53142 3.13574,6.03785 -0.52828,1.02525 -1.2575,8.04159 -1.62051,15.59187 l -0.66,13.72778 9.00691,4.52354 c 11.40262,5.72674 19.98026,11.19743 20.7656,13.24399 0.56407,1.46995 -2.97634,5.45444 -4.58476,5.15983 C 302.78765,284.81852 298.225,282.4293 293,279.57353 Z M 267.8,178.8 c 1.62976,-1.62976 1.50759,-3.34956 -0.37143,-5.22857 -2.29589,-2.2959 -4.30963,-1.92658 -5.66044,1.03812 -1.02066,2.2401 -0.91978,2.80639 0.71257,4 2.33296,1.7059 3.75301,1.75674 5.3193,0.19045 z m 233.06842,92.94222 -2.63158,-1.04501 0.48963,-41.09861 C 499.25038,185.62277 499.2031,186 504.19113,186 505.90752,186 506,188.14306 506,227.91821 c 0,23.05502 -0.27314,42.63002 -0.60699,43.5 -0.6807,1.77388 -0.84405,1.78557 -4.52459,0.32401 z M 310.24453,254.75 c 0.30021,-8.3875 0.30857,-18.49804 0.0186,-22.46787 l -0.52725,-7.21787 -4.11793,-2.12067 c -2.26486,-1.16637 -7.81136,-4.89333 -12.32556,-8.28213 l -8.20762,-6.16146 -0.12431,-24 c -0.0684,-13.2 -0.12469,-27.375 -0.12515,-31.5 l -8.3e-4,-7.5 3.57481,-0.59129 c 1.96615,-0.32521 3.8034,-0.36271 4.08277,-0.0833 0.27938,0.27937 0.51118,13.59545 0.51513,29.59129 l 0.007,29.08333 12.36095,8.35117 12.36096,8.35118 0.63188,6.04552 C 318.71565,229.5729 319,240.77737 319,251.14669 V 270 h -4.65065 -4.65064 z M 437,245.04668 c 0,-24.74136 0.0191,-24.96677 2.25,-26.5378 C 443.74007,215.3469 459.97196,206 460.97301,206 c 0.66692,0 1.06623,-7.45034 1.13892,-21.25 0.0616,-11.6875 0.39906,-25.525 0.75,-30.75 l 0.63807,-9.5 3.71727,-0.30841 3.71726,-0.30842 -0.0315,33.55758 c -0.0299,31.86248 -0.12689,33.60866 -1.92096,34.56882 -1.03923,0.55618 -4.43412,3.23796 -7.54419,5.95951 -3.11007,2.72155 -7.57718,5.68249 -9.92691,6.57986 -2.34973,0.89737 -4.71326,2.60347 -5.25227,3.79132 -0.59079,1.30194 -0.78176,10.00397 -0.48082,21.90974 l 0.49921,19.75 h -4.63857 -4.63857 v -24.95332 z m -110.10853,0.31031 c -0.0597,-12.02135 -0.3972,-24.45395 -0.75,-27.628 -0.5992,-5.39071 -0.95203,-6.01676 -5.35402,-9.5 C 318.19554,206.17804 313.56524,202.475 310.49788,200 l -5.57701,-4.5 0.40746,-22 0.40746,-22 -3.36789,-3.75288 c -3.85704,-4.29793 -4.03642,-5.67848 -1.47157,-11.32572 2.47839,-5.45686 6.40899,-8.4214 11.16572,-8.4214 3.15912,0 4.315,0.62615 6.92252,3.75 2.62088,3.13985 3.07868,4.44544 2.81368,8.02418 -0.30673,4.14216 -0.12495,4.4356 5.88506,9.5 l 6.20157,5.22582 0.0623,8.5 c 0.0343,4.675 0.33051,29.7625 0.65828,55.75 l 0.59595,47.25 h -2.51893 c -1.38542,0 -3.23074,0.27314 -4.10072,0.60699 -1.41067,0.54132 -1.59353,-1.75748 -1.69032,-21.25 z m -0.18709,-66.56713 -0.60911,-21.21013 -3.79764,-3.25729 c -4.29267,-3.68188 -7.10353,-4.91892 -8.34322,-3.67178 -0.46434,0.46714 -0.92351,9.54445 -1.02036,20.1718 l -0.1761,19.32246 5.82775,4.92754 c 3.20525,2.71015 6.48025,4.92754 7.27777,4.92754 1.24028,0 1.36192,-3.06815 0.84091,-21.21014 z M 313.8,142.8 c 2.46612,-2.46612 0.77231,-7.8 -2.47695,-7.8 -0.70232,0 -1.9943,1.09482 -2.87107,2.43294 -2.80969,4.28814 1.80042,8.91466 5.34802,5.36706 z m 108.09947,123.01037 c -0.0553,-0.72071 -0.0548,-26.06037 10e-4,-56.31037 l 0.1017,-55 5.98346,-5 c 5.55926,-4.64553 5.98454,-5.29796 5.99882,-9.20295 0.02,-5.4758 1.74239,-9.10453 5.1604,-10.87205 6.38147,-3.29998 12.1964,-0.63876 15.41,7.05245 2.12478,5.08533 1.77858,8.57332 -1.29434,13.04042 l -2.73932,3.98213 0.19903,22.63111 0.19903,22.6311 -9.90792,7.63058 c -5.44936,4.19682 -10.16506,8.04664 -10.47933,8.55514 -0.31428,0.50851 -0.72379,12.31575 -0.91003,26.23832 l -0.33862,25.31375 -3.64177,0.31037 c -2.45865,0.20953 -3.67442,-0.11534 -3.74229,-1 z m 15.50242,-67.12492 5.90188,-3.96626 -0.68972,-21.59744 c -0.37935,-11.87859 -1.08474,-21.99244 -1.56752,-22.47522 -0.50373,-0.50373 -3.15103,0.96418 -6.21216,3.44459 L 429.5,158.41351 v 22.69776 c 0,14.85093 0.34571,22.4977 1,22.11909 0.55,-0.31826 3.65585,-2.36347 6.90189,-4.54491 z M 446.8,142.8 c 3.22011,-3.22011 -0.91332,-9.61069 -4.36392,-6.74695 -2.66212,2.20936 -1.172,7.94695 2.06392,7.94695 0.605,0 1.64,-0.54 2.3,-1.2 z m -37.5738,115.7725 -3.2738,-1.18888 -0.0306,-61.87171 -0.0306,-61.87172 -2.94564,-3.35489 C 395.90861,122.27058 401.6116,110 412.37361,110 c 6.56264,0 12.21443,7.47306 10.89032,14.39968 -0.53394,2.79311 -4.4323,7.50414 -7.71534,9.32372 -1.90629,1.05653 -1.94678,2.52912 -1.75098,63.67907 0.11025,34.42864 -0.13662,62.54384 -0.54858,62.47822 -0.41197,-0.0656 -2.22224,-0.65431 -4.02283,-1.30819 z m 5.80969,-134.63956 c 0.86054,-1.60793 0.75218,-2.60745 -0.48787,-4.5 C 412.05258,115.62442 408,116.90373 408,121.5 c 0,4.40866 5.0449,6.15313 7.03589,2.43294 z m -72.1932,72.31725 0.34268,-61.75019 -3.0432,-1.14446 c -3.74519,-1.40845 -7.13343,-6.7251 -7.13843,-11.20125 -0.011,-9.86284 11.55252,-15.76433 18.85278,-9.62156 5.81628,4.89407 6.20753,11.35546 1.12023,18.49993 -2.07185,2.90964 -2.09719,3.66079 -2.15857,63.98586 -0.0589,57.87513 -0.15612,61.09197 -1.8744,62.01157 -0.99676,0.53345 -2.85438,0.96999 -4.12804,0.9701 l -2.31574,1.8e-4 z m 3.57552,-70.85718 c 2.06121,-0.79096 2.05986,-5.75136 -0.002,-7.46258 -3.27194,-2.71546 -7.19146,3.22557 -4.3705,6.62461 1.32655,1.59839 2.0364,1.73443 4.37253,0.83797 z m 228.58074,124.4023 c 10e-4,-4.45656 -0.17317,-4.4112 20.50105,-5.33098 7.7,-0.34257 16.19304,-1.08638 18.87341,-1.65292 3.87514,-0.81907 5.04984,-0.75163 5.73469,0.32926 1.30717,2.06308 1.05823,7.86559 -0.3581,8.34677 -0.6875,0.23357 -11.03797,0.78194 -23.00105,1.21861 l -21.75106,0.79395 10e-4,-3.70469 z m -440.33228,2.53802 c -0.98041,-0.9804 -0.78267,-7.60158 0.27703,-9.27647 0.74428,-1.17636 1.39665,-1.22282 3.52887,-0.25131 1.52068,0.69286 10.02847,1.4345 20.32161,1.77145 17.54642,0.5744 21.5677,1.3177 22.67004,4.19034 1.46567,3.81948 -0.86932,4.23266 -23.92,4.23266 -12.21599,0 -22.51089,-0.3 -22.87755,-0.66667 z m 154.36851,-2.26759 c -1.39038,-2.59795 -1.31476,-11.35803 0.12534,-14.51869 0.94472,-2.07344 1.86116,-2.54705 4.92857,-2.54705 5.73257,0 7.20178,2.09107 6.72542,9.57206 -0.21778,3.42029 -0.99524,6.94079 -1.72769,7.82332 -1.96121,2.36313 -8.7293,2.14117 -10.05164,-0.32964 z M 358,200.27229 V 149.3306 l -3,-2.67302 c -4.31964,-3.84881 -3.70201,-5.30937 0.75,-1.77358 2.0625,1.63804 5.1,3.12174 6.75,3.29712 l 3,0.31888 0.25919,50.13929 0.25918,50.13928 -2.41628,0.60645 c -1.32896,0.33355 -3.13309,0.88151 -4.00919,1.2177 C 358.14855,251.15698 358,246.4634 358,200.27229 Z m 34.60961,48.84539 -3.8904,-1.49594 0.6404,-10.46643 C 389.71182,231.39877 390,209.23003 390,187.89144 v -38.79743 l 3.75,-1.04143 c 5.60773,-1.55734 6.50996,-1.40683 5.28518,0.88168 -0.66801,1.24819 -1.07054,18.89409 -1.13486,49.75 -0.0548,26.29866 -0.39232,48.7413 -0.75,49.87255 -0.62065,1.96295 -0.82784,1.98854 -4.54071,0.56087 z M 374.00025,176.91898 374,113.33796 l -2.33068,-1.24734 c -7.86956,-4.21166 -7.12275,-17.219181 1.2368,-21.542071 5.70565,-2.950506 12.6673,-0.897878 15.74102,4.641207 2.99895,5.404334 0.17046,15.781194 -4.72511,17.334994 -1.94817,0.61832 -1.97438,1.61081 -1.70035,64.39186 l 0.27832,63.76386 -4.24975,-0.0902 -4.24975,-0.0902 -2.5e-4,-63.58102 z m 7.42982,-73.1226 c 1.3163,-1.87928 1.34349,-2.50482 0.18473,-4.250001 -2.00218,-3.015449 -5.85008,-2.662155 -7.01275,0.643871 -1.79663,5.1087 3.73084,8.02797 6.82802,3.60613 z m -178.0346,125.12253 c -6.53241,-1.89522 -11.22201,-9.69956 -9.93876,-16.53987 0.8783,-4.68174 7.2984,-11.05487 12.03065,-11.94265 4.55991,-0.85544 11.72886,1.75173 14.4985,5.27276 6.3442,8.06535 3.7676,18.98895 -5.38061,22.81132 -3.93302,1.64332 -6.5931,1.73787 -11.20978,0.39844 z M 213.96858,217.75 c 1.37515,-2.46938 1.37517,-3.03062 2.2e-4,-5.5 C 210.75742,206.48242 202,209.18989 202,215.95031 c 0,3.58195 2.24808,5.12882 6.96858,4.79499 2.60706,-0.18437 3.84896,-0.92834 5,-2.9953 z m 324.9531,9.9762 c -10.8955,-7.34247 -10.50101,-20.92831 0.75222,-25.90615 8.03626,-3.55482 15.84617,-1.06076 19.57455,6.25103 6.78185,13.30004 -8.22468,27.81072 -20.32677,19.65512 z m 10.88976,-7.76516 C 554.06998,215.99361 551.8023,209 546.25731,209 c -6.10103,0 -8.46163,7.12092 -3.62245,10.92742 3.29127,2.58891 4.42808,2.59424 7.17658,0.0336 z M 210.43064,702.0213 c -8.76437,-1.98399 -14.05064,-9.21707 -13.20073,-18.06225 0.638,-6.63973 4.52155,-12.29267 10.54033,-15.34262 l 4.7611,-2.41263 -0.0157,-17.60189 c -0.009,-9.68104 0.0966,-17.6019 0.23381,-17.6019 0.13721,-10e-6 2.49323,1.23749 5.23559,2.74999 l 4.98611,2.75 0.0144,16.69098 c 0.01,11.07101 0.38572,16.92047 1.11719,17.37254 2.09542,1.29504 5.87772,10.9503 5.88745,15.0292 0.0124,5.20159 -3.71944,12.36641 -7.564,14.52218 -3.73635,2.0951 -8.09911,2.78845 -11.99559,1.9064 z m 6.65602,-11.3031 c 2.53446,-1.9459 4.13198,-5.71093 3.49687,-8.24141 -1.37811,-5.49083 -6.89094,-7.20995 -10.54457,-3.28823 -5.34299,5.73502 1.02543,16.15339 7.0477,11.52964 z m 317.12019,10.28941 c -3.40678,-1.54618 -4.71985,-2.91309 -6.35987,-6.62064 -2.96924,-6.71245 -2.27686,-14.82743 1.70976,-20.0392 2.93222,-3.83333 2.94514,-3.91128 3.44326,-20.775 l 0.5,-16.92723 5.25,-3.35208 5.25,-3.35208 v 18.36879 18.3688 l 2.44631,1.11461 c 5.07904,2.31417 10.5072,8.31078 11.96424,13.21717 2.47998,8.351 -0.28553,15.86461 -7.28777,19.80009 -4.86411,2.73378 -11.16453,2.80707 -16.91593,0.19677 z m 14.4204,-12.6139 c 1.07076,-2.63722 1.00537,-3.61876 -0.43302,-6.5 -1.39662,-2.79756 -2.33282,-3.44703 -5.32954,-3.69724 -2.97431,-0.24834 -4.03011,0.19837 -5.80653,2.45672 -4.0291,5.12217 -7.9e-4,11.72801 6.79748,11.14688 2.86229,-0.24467 3.74326,-0.87358 4.77161,-3.40636 z M 152.96002,666.69726 c -8.1383,-4.30363 -11.15903,-14.52326 -6.89586,-23.3298 2.07602,-4.28848 8.95363,-9.83185 13.66557,-11.01447 C 161.978,631.78871 162,631.6195 162,614.89159 c 0,-9.29037 0.3375,-16.85622 0.75,-16.81299 0.4125,0.0432 2.775,1.31499 5.25,2.82612 l 4.5,2.74752 v 16.92388 c 0,14.76468 0.24351,17.37042 1.90864,20.42388 5.6319,10.32758 2.63687,21.80445 -6.80971,26.09457 -5.46661,2.48263 -9.39445,2.37603 -14.63891,-0.39731 z m 12.9674,-11.33212 c 4.2753,-5.43516 1.48861,-12.89015 -4.55668,-12.1901 -2.75361,0.31888 -7.37074,5.5419 -7.37074,8.33798 0,2.64444 4.14642,6.48698 7,6.48698 1.89306,0 3.55308,-0.88767 4.92742,-2.63486 z M 589.02043,666.75 C 582.23244,663.28151 580.5,660.20774 580.5,651.63269 c 0,-5.56864 0.45758,-7.89695 2,-10.17667 1.75304,-2.59101 2.06174,-5.11228 2.5,-20.41823 l 0.5,-17.4622 3.39788,-2.2878 c 1.86884,-1.25828 4.2733,-2.28779 5.34325,-2.28779 1.85936,0 1.93146,0.70906 1.63095,16.03829 l -0.31442,16.0383 4.97117,2.86627 c 9.11283,5.25426 12.75954,10.3648 12.88499,18.05714 0.15297,9.38025 -7.20405,17 -16.41382,17 -1.96692,0 -5.55773,-1.0125 -7.97957,-2.25 z m 10.43477,-8.37118 c 1.89818,-0.7284 4.5448,-5.46986 4.5448,-8.14207 0,-1.02441 -1.35204,-3.15791 -3.00454,-4.7411 -2.55045,-2.44349 -3.40404,-2.73625 -5.64785,-1.93709 -1.45382,0.51779 -3.54325,2.15028 -4.64316,3.62775 -1.7689,2.37608 -1.85137,3.04479 -0.7141,5.7904 0.70717,1.70724 2.46113,3.74289 3.8977,4.52365 3.03697,1.65056 3.40412,1.70849 5.56715,0.87846 z M 589.5,182.55047 l -5,-3.37771 0.3572,-19.03146 c 0.3465,-18.46122 0.2893,-19.12682 -1.90907,-22.21414 -5.51032,-7.73853 -2.75989,-19.60901 5.69098,-24.56155 3.7349,-2.1888 5.32599,-2.53324 9.93604,-2.15094 4.54115,0.37659 6.08463,1.03248 8.9381,3.79817 5.67811,5.50344 7.32058,14.3204 3.97934,21.36153 -2.18434,4.60316 -6.20391,7.5068 -11.71313,8.46129 l -4.27946,0.74142 0.28913,17.46146 c 0.15902,9.6038 -0.066,18.6828 -0.5,20.17555 L 594.5,185.92818 Z M 601,133 c 3.86539,-3.86539 1.24527,-12 -3.86514,-12 -3.34103,0 -7.13486,3.85178 -7.13486,7.24384 0,6.15491 6.70302,9.05314 11,4.75616 z m -440,32.46862 c 0,-14.7673 -0.3049,-19.61881 -1.25,-19.88979 -11.62568,-3.33333 -15.84632,-7.40343 -16.48907,-15.90097 -0.78739,-10.40971 6.36036,-18.68128 16.13695,-18.67412 6.44562,0.005 10.83736,2.57688 13.58048,7.95383 3.33582,6.53876 3.62807,11.92979 0.9562,17.6386 -2.18195,4.662 -2.28061,5.84802 -2.00071,24.05022 l 0.29443,19.14638 -2.36414,0.73481 c -1.30028,0.40415 -3.55861,1.57577 -5.01851,2.60362 -1.4599,1.02784 -2.9224,1.8688 -3.25,1.8688 C 161.26803,185 161,176.21088 161,165.46862 Z m 2.68555,-32.64293 c 2.90526,-2.72935 2.96094,-6.50863 0.14014,-9.51124 -2.8686,-3.05348 -6.19499,-2.93171 -8.75311,0.32041 -2.72177,3.46016 -2.61667,5.91196 0.38197,8.91059 3.02718,3.02719 5.22727,3.10209 8.231,0.28024 z M 187,166.04705 c 0,-3.72028 2.27604,-6.91556 6.53568,-9.1753 3.60701,-1.91351 4.52951,-2.06253 5.87182,-0.94852 2.7491,2.28156 1.78224,3.99775 -4.56254,8.09858 C 187.83935,168.54976 187,168.76644 187,166.04705 Z m 374.25,-2.6491 c -5.53338,-3.64315 -5.7799,-4.01137 -4.27698,-6.38854 0.82159,-1.2995 1.36446,-1.24963 4.23469,0.38901 3.97434,2.26898 6.73987,5.47631 6.77005,7.85158 0.0299,2.35091 -0.61284,2.17398 -6.72776,-1.85205 z M 212,132.03611 V 111.25 l -2.86038,-0.57208 C 202.86169,109.42234 197,101.66824 197,94.619107 197,84.722684 204.23311,77 213.50216,77 c 6.51944,0 10.94107,2.778789 14.17336,8.907284 3.75048,7.111021 2.63075,15.786446 -2.72939,21.146586 -2.12652,2.12652 -2.22102,2.92483 -2.05239,17.33765 0.0972,8.30966 0.41956,16.48344 0.71631,18.16395 0.50546,2.86246 0.15582,3.28322 -5.53525,6.6611 L 212,152.82221 Z m 6.17126,-32.691098 C 220.64547,97.105881 220.55355,91.553554 218,89 c -6.21953,-6.21953 -14.8598,3.262534 -8.82569,9.685549 2.54868,2.712941 6.41475,2.996321 8.99695,0.659463 z m 319.87784,49.689478 -5.45091,-3.72688 0.2886,-18.74823 c 0.28207,-18.32511 0.23909,-18.78291 -1.90474,-20.2845 -4.59875,-3.22109 -6.39547,-12.956332 -3.61802,-19.60369 4.35253,-10.417072 19.31952,-13.589715 26.09928,-5.532423 4.66679,5.546159 5.78809,8.708873 5.3305,15.035007 C 558.2699,103.41681 556.03782,106.64108 549.22227,110 l -5.07272,2.5 -0.32478,20.13068 -0.32477,20.13069 z m 8.63645,-50.208804 c 3.09409,-2.906747 3.14089,-8.133419 0.0919,-10.268982 C 541.82682,85.08912 536,87.884948 536,93.727963 c 0,6.745707 5.92337,9.571557 10.68555,5.097723 z M 237.00374,134.85699 c 0.0145,-5.2556 10.15741,-12.91148 14.22311,-10.73559 2.40812,1.28879 1.76712,2.12908 -5.26897,6.9072 -7.16437,4.86523 -8.95911,5.63258 -8.95414,3.82839 z m 276.03475,-3.32859 c -2.80539,-2.06976 -3.07259,-2.57809 -1.6434,-3.12652 1.08203,-0.41521 2.60305,0.18719 4.15579,1.64592 4.55987,4.28377 2.74043,5.356 -2.51239,1.4806 z M 264.42854,118.67438 c -0.26418,-0.68844 -0.35617,-10.32653 -0.20443,-21.417986 0.27128,-19.829183 0.24042,-20.175175 -1.84589,-20.698208 -3.49749,-0.876815 -9.08823,-7.882264 -9.83957,-12.329435 -1.01642,-6.016121 1.03952,-12.129202 5.51139,-16.387468 6.71219,-6.391564 15.43316,-6.358081 21.87523,0.08399 8.25056,8.250556 7.44503,21.973624 -1.60318,27.312203 l -3.55381,2.096797 0.36586,17.730361 0.36586,17.730356 -5.29557,3.56555 c -3.63676,2.44866 -5.44602,3.17345 -5.77589,2.31384 z m 8.9366,-52.74696 c 3.44439,-2.709355 3.52054,-7.132645 0.18031,-10.472875 C 272.19545,54.104545 270.15,53 269,53 c -2.5747,0 -7,4.255897 -7,6.732039 0,2.485856 2.75331,6.225662 5.357,7.27638 3.03513,1.224829 3.0891,1.21512 6.00814,-1.080999 z m 214.21755,51.16396 c -0.95,-1.04975 -3.06221,-2.46157 -4.69378,-3.1374 l -2.96651,-1.22876 0.12498,-18.05866 c 0.11867,-17.147579 0.025,-18.095628 -1.85607,-18.791492 -1.08957,-0.40306 -3.26585,-2.41731 -4.83618,-4.47611 -5.96202,-7.816622 -2.77252,-21.600355 5.95676,-25.742671 5.07743,-2.409397 13.74363,-2.187055 17.08115,0.438239 4.00454,3.149968 6.87892,9.583659 6.96576,15.591365 0.0632,4.373558 -0.41449,5.820222 -2.97586,9.011996 C 498.7048,72.789049 495.92446,75.4 494.20441,76.5 l -3.12737,2 -0.0385,20.25 c -0.0212,11.1375 -0.41878,20.25 -0.88353,20.25 -0.46476,0 -1.62229,-0.85888 -2.5723,-1.90862 z m 3.58857,-50.746368 c 2.312,-2.092335 2.41035,-8.044855 0.17375,-10.516271 -2.37765,-2.627271 -7.8258,-2.408102 -9.78831,0.393765 -4.73183,6.755634 3.61939,15.548059 9.61456,10.122506 z"
     id="path143"
     inkscape:connector-curvature="0" />
</svg>
